<svg xmlns="http://www.w3.org/2000/svg" viewBox="0 0 295.2 295.2">
    <path d="M244.4 239.4l-7-6.6-1 1-39.7-129.6a38.1 38.1 0 00-30-61.4V25.5l3.8.5 1.7-9.3-5.9-.9a19 19 0 00-37.4 0l-5.9.9 1.8 9.3 3.8-.5v17.5a38.1 38.1 0 00-30.1 61.3L58.9 234l-1.1-1-7 6.5 5 4.7-8 26-.2 25.1 28-20.9 3.7-12.3 3 1.9 4.7-8.3-4.8-3 17.5-57.4h95.8l17.6 57.4-4.8 3 4.6 8.3 3-1.9 3.8 12.3 28 21v-24.6l-8.2-26.6c1.6-1.5 3.3-3 4.9-4.7zm-77.7-187a28.6 28.6 0 0117.4 51.1 38.2 38.2 0 00-17.5-22.2V81A38 38 0 00156 54.5c3.3-1.4 7-2.1 10.8-2.1zM165 91.7c5.2 4 9 9.8 10.4 16.4a28.4 28.4 0 01-19.6-.7 38 38 0 009.2-15.7zm-17.5 10.5c-4.3-4-7.5-9.1-8.8-15a28.4 28.4 0 0117.7 0c-1.4 5.9-4.5 11-8.9 15zm0-26a38 38 0 00-9.3 1.2c1-7 4.3-13.2 9.3-17.7 5 4.5 8.4 10.7 9.3 17.7-3-.8-6-1.2-9.3-1.2zm-8.3 31.2a28.5 28.5 0 01-19.6.7 28.6 28.6 0 0110.4-16.4c1.8 6 5 11.3 9.2 15.7zM128.6 119c7 0 13.4-1.8 19-5.1a37.8 37.8 0 0028.3 4 28.6 28.6 0 01-56.6 0c3 .7 6 1.1 9.3 1.1zM138 19a9.5 9.5 0 0119 0v25.1c-3.3.9-6.5 2.2-9.5 4-3-1.8-6.1-3.1-9.5-4v-25zm-9.5 33.4c3.8 0 7.4.7 10.7 2.1A38 38 0 00128.6 81v.3a38.2 38.2 0 00-17.5 22.2 28.5 28.5 0 0117.5-51.1zM67.3 268.5l-10.2 7.7v-4l49-160.5 3.4 2.2v.4c0 3.8.6 7.4 1.6 10.9L67.3 268.5zm35.3-82.8l14.8-48.3a38 38 0 0060.5 0l14.7 48.3h-90zm135.5 90.5l-10.2-7.6-43.8-143.4a38 38 0 001.6-11v-.3l3.4-2.2 49 160.4v4zM208.3 28.9c-5.6-2.9-11.5-5.4-17.5-7.5l-3.1 9c5.6 2 11 4.3 16.3 7l4.3-8.5zM262.9 80.6c-3.2-5.5-6.8-10.8-10.7-15.7l-7.5 5.9c3.7 4.6 7 9.5 10 14.6l8.2-4.8zM239.3 50.8a134 134 0 00-14.7-12l-5.5 7.7a125 125 0 0113.6 11.2l6.6-6.9zM267.9 118l9.2-2.2c-1.5-6.2-3.5-12.3-5.8-18.1l-8.9 3.5c2.3 5.5 4 11.1 5.5 16.9zM280.3 134.6l-9.5.9a127.5 127.5 0 01.5 17.7l9.5.4a137 137 0 00-.5-19zM264.8 187.8l9 3c2-5.9 3.7-12.1 4.8-18.3l-9.3-1.8c-1.1 5.8-2.6 11.5-4.5 17.1zM248.7 219.2l7.7 5.5c3.7-5.2 7-10.7 10-16.3l-8.6-4.3a124 124 0 01-9.1 15z"/>
    <path d="M174.5 268.5l2.1 9.3c6.3-1.4 12.6-3.3 18.7-5.6l-3.5-9a123 123 0 01-17.3 5.3zM147.6 271.4c-3 0-6 0-9-.3l-.7 9.5a129.3 129.3 0 0019.4 0l-.7-9.5-9 .3zM100 272.2c6 2.3 12.3 4.2 18.6 5.6l2-9.3a122 122 0 01-17.3-5.2l-3.4 8.9zM107.7 30.4l-3-9c-6 2-12 4.5-17.6 7.4l4.3 8.5c5.2-2.7 10.7-5 16.3-6.9zM50.6 70.7l-7.4-6c-4 5-7.6 10.3-10.8 15.8l8.3 4.8c2.9-5.1 6.3-10 10-14.6zM28.9 208.3c2.8 5.6 6.2 11 9.8 16.3l7.8-5.5a123 123 0 01-9.2-15.2l-8.4 4.4zM26 170.6l-9.4 1.7a133 133 0 004.8 18.5l9-3.1c-1.9-5.6-3.4-11.3-4.5-17.1zM23.8 147.6c0-4 .2-8.2.6-12.3l-9.5-.9a134.7 134.7 0 00-.5 19l9.5-.4v-5.4zM76.3 46.4l-5.5-7.7c-5.2 3.6-10.1 7.7-14.8 12l6.6 7c4.3-4.1 8.9-7.9 13.7-11.3zM32.8 101.1L24 97.5c-2.4 5.9-4.3 12-5.9 18.1l9.3 2.3c1.4-5.7 3.2-11.4 5.4-16.8z"/>
</svg>
