<svg xmlns="http://www.w3.org/2000/svg" viewBox="0 0 60 60">
    <g fill="none">
        <path d="M19 38a7.998 7.998 0 01-9.5 7.86A8.002 8.002 0 0111 30a7.998 7.998 0 018 8z" fill="#6A1B9A"/>
        <ellipse fill="#9D27B0" cx="9.5" cy="38" rx="6.5" ry="7.86"/>
        <path d="M17 18a7.998 7.998 0 01-9.5 7.86A8.002 8.002 0 019 10a7.998 7.998 0 018 8z" fill="#283593"/>
        <ellipse fill="#3F51B5" cx="7.5" cy="18" rx="6.5" ry="7.86"/>
        <path d="M57 38a7.998 7.998 0 01-9.5 7.86A8.002 8.002 0 0149 30a7.998 7.998 0 018 8z" fill="#F57C00"/>
        <ellipse fill="#FF9801" cx="47.5" cy="38" rx="6.5" ry="7.86"/>
        <path d="M59 18a7.998 7.998 0 01-9.5 7.86A8.002 8.002 0 0151 10a7.998 7.998 0 018 8z" fill="#BB193B"/>
        <ellipse fill="#EF314C" cx="49.5" cy="18" rx="6.5" ry="7.86"/>
        <path d="M38 9a7.998 7.998 0 01-9.5 7.86A8.002 8.002 0 0130 1a7.998 7.998 0 018 8z" fill="#549414"/>
        <ellipse fill="#60A917" cx="28.5" cy="9" rx="6.5" ry="7.86"/>
        <path d="M16.81 43.5L11 46.58l-.06-.03-5.75-3.05a5.93 5.93 0 012.08-3.19 5.783 5.783 0 011.82-1h3.82a6.018 6.018 0 013.9 4.19z"
              fill="#C81E1E"/>
        <path d="M14.81 44.5l-3.87 2.05-5.75-3.05a5.93 5.93 0 012.08-3.19h3.64a6.018 6.018 0 013.9 4.19z"
              fill="#F44335"/>
        <circle fill="#FDD7AD" cx="11" cy="37" r="3"/>
        <path d="M14.81 23.5L9 26.67l-.08-.05-5.73-3.12a5.93 5.93 0 012.08-3.19 5.783 5.783 0 011.82-1h3.82a6.018 6.018 0 013.9 4.19z"
              fill="#C81E1E"/>
        <path d="M12.81 24.5l-3.89 2.12-5.73-3.12a5.93 5.93 0 012.08-3.19h3.64a6.018 6.018 0 013.9 4.19z"
              fill="#F44335"/>
        <circle fill="#FDD7AD" cx="9" cy="17" r="3"/>
        <path d="M54.81 43.5L49 46.71l-.1-.05-5.71-3.16a5.93 5.93 0 012.08-3.19 5.783 5.783 0 011.82-1h3.82a6.018 6.018 0 013.9 4.19z"
              fill="#C81E1E"/>
        <path d="M52.81 44.5l-3.91 2.16-5.71-3.16a5.93 5.93 0 012.08-3.19h3.64a6.018 6.018 0 013.9 4.19z"
              fill="#F44335"/>
        <circle fill="#FDD7AD" cx="49" cy="37" r="3"/>
        <path d="M56.81 23.5L51 26.46l-.02-.01-5.79-2.95a5.93 5.93 0 012.08-3.19 5.783 5.783 0 011.82-1h3.82a6.018 6.018 0 013.9 4.19z"
              fill="#C81E1E"/>
        <path d="M54.81 24.5l-3.83 1.95-5.79-2.95a5.93 5.93 0 012.08-3.19h3.64a6.018 6.018 0 013.9 4.19z"
              fill="#F44335"/>
        <circle fill="#FDD7AD" cx="51" cy="17" r="3"/>
        <path d="M35.81 14.5l-2 .99-3.98 1.97-5.64-2.96a5.93 5.93 0 012.08-3.19 5.783 5.783 0 011.82-1h3.82a6.018 6.018 0 013.9 4.19z"
              fill="#C81E1E"/>
        <path d="M33.81 15.49l-3.98 1.97-5.64-2.96a5.93 5.93 0 012.08-3.19h3.64a6.024 6.024 0 013.9 4.18z"
              fill="#F44335"/>
        <circle fill="#FDD7AD" cx="30" cy="8" r="3"/>
        <path d="M33.28 24.77A4.34 4.34 0 0132 25c-2.59 0-1.45-6.73-1.09-8.55h2c-.32 1.62-1.26 7.14.37 8.32z"
              fill="#783E22"/>
        <path d="M33.5 58.13A7.181 7.181 0 0030 59c-.31-.2-.646-.355-1-.46a13.49 13.49 0 014.5-.41z" fill="#CB8252"/>
        <path d="M39.83 34.84c.76-.26 1.49-.55 2.17-.84l-1 5c-8 0-8 4-8 4v8s0 4 4 4 5 4 5 4-.86-.19-2.13-.39A5.18 5.18 0 0035 55c-4 0-4-4-4-4l-2.563-11.906L39.83 34.84zM34.5 35.64a7.795 7.795 0 01-1.93.01 2.648 2.648 0 01-1.94-1.15 2.438 2.438 0 01.19-2.86c.43-.504.94-.933 1.51-1.27 3.41-2.19 7.3-4.09 11.49-6.28l-1.9-2.98c.55-.38 1.01-.72 1.37-.98l2.53 3.96c-4.19 2.19-8.08 4.09-11.49 6.28-.57.337-1.08.766-1.51 1.27a2.438 2.438 0 00-.19 2.86 2.632 2.632 0 001.87 1.14z"
              fill="#783E22"/>
        <path d="M39.87 58.61a32.241 32.241 0 00-6.37-.48 13.49 13.49 0 00-4.5.41 13.49 13.49 0 00-4.5-.41A43.846 43.846 0 0018 59s.04-.15.13-.39A5.18 5.18 0 0123 55c4 0 4-4 4-4v-8s0-4-8-4l-.83-4.16L18 34c1.75.797 3.6 1.35 5.5 1.64.64.083 1.289.087 1.93.01a2.648 2.648 0 001.94-1.15 2.438 2.438 0 00-.19-2.86 5.966 5.966 0 00-1.51-1.27c-3.41-2.19-7.3-4.09-11.49-6.28l1.9-2.98.63-.98c1.57 1.15 5.4 3.84 8.01 4.64.413.14.844.218 1.28.23 2.59 0 1.45-6.73 1.09-8.55h3.82C30.55 18.27 29.41 25 32 25a4.34 4.34 0 001.28-.23c.208.154.461.235.72.23 1.96 0 6.7-3.07 9-4.66l1.781 3.222c-4.19 2.19-9.041 4.618-12.451 6.808-.57.337-1.08.766-1.51 1.27a2.438 2.438 0 00-.19 2.86 2.648 2.648 0 001.94 1.15c.641.077 1.29.073 1.93-.01.02 0 .05.01.07.01 1.71.21 5.282-.8 6.992-1.4l-.837 3.888C30.75 38.906 31 43 31 43v8s0 4 4 4a5.18 5.18 0 014.87 3.61z"
              fill="sienna"/>
        <path d="M11 47a9 9 0 119-9 9.01 9.01 0 01-9 9zm0-16a7 7 0 107 7 7.008 7.008 0 00-7-7z" fill="#000"/>
        <path d="M5.191 44.5a1 1 0 01-.969-1.25 6.976 6.976 0 014.55-4.888 1 1 0 11.635 1.897 4.986 4.986 0 00-3.249 3.492 1 1 0 01-.967.75zM16.809 44.5a1 1 0 01-.967-.75 4.986 4.986 0 00-3.25-3.492 1 1 0 11.635-1.896 6.976 6.976 0 014.55 4.887 1.001 1.001 0 01-.968 1.252z"
              fill="#000"/>
        <path d="M11 41a4 4 0 110-8 4 4 0 010 8zm0-6a2 2 0 100 4 2 2 0 000-4zM9 27a9 9 0 119-9 9.01 9.01 0 01-9 9zm0-16a7 7 0 107 7 7.008 7.008 0 00-7-7z"
              fill="#000"/>
        <path d="M3.191 24.5a1 1 0 01-.969-1.25 6.976 6.976 0 014.55-4.888 1 1 0 11.635 1.897 4.986 4.986 0 00-3.249 3.492 1 1 0 01-.967.75zM14.809 24.5a1 1 0 01-.967-.75 4.986 4.986 0 00-3.25-3.492 1 1 0 11.635-1.896 6.976 6.976 0 014.55 4.888 1.001 1.001 0 01-.968 1.25z"
              fill="#000"/>
        <path d="M9 21a4 4 0 110-8 4 4 0 010 8zm0-6a2 2 0 100 4 2 2 0 000-4zM49 47a9 9 0 119-9 9.01 9.01 0 01-9 9zm0-16a7 7 0 107 7 7.008 7.008 0 00-7-7z"
              fill="#000"/>
        <path d="M54.809 44.5a1 1 0 01-.967-.75 4.986 4.986 0 00-3.25-3.492 1 1 0 11.636-1.896 6.976 6.976 0 014.55 4.887 1.001 1.001 0 01-.97 1.252zM43.191 44.5a1 1 0 01-.969-1.251 6.976 6.976 0 014.55-4.887 1 1 0 11.635 1.896 4.986 4.986 0 00-3.249 3.492 1 1 0 01-.967.75z"
              fill="#000"/>
        <path d="M49 41a4 4 0 110-8 4 4 0 010 8zm0-6a2 2 0 100 4 2 2 0 000-4zM51 27a9 9 0 119-9 9.01 9.01 0 01-9 9zm0-16a7 7 0 107 7 7.008 7.008 0 00-7-7z"
              fill="#000"/>
        <path d="M56.809 24.5a1 1 0 01-.967-.75 4.986 4.986 0 00-3.25-3.492 1 1 0 11.636-1.896 6.976 6.976 0 014.55 4.888 1.001 1.001 0 01-.97 1.25zM45.191 24.5a1 1 0 01-.969-1.251 6.976 6.976 0 014.55-4.887 1 1 0 11.635 1.896 4.986 4.986 0 00-3.249 3.492 1 1 0 01-.967.75z"
              fill="#000"/>
        <path d="M51 21a4 4 0 110-8 4 4 0 010 8zm0-6a2 2 0 100 4 2 2 0 000-4zM30 18a9 9 0 119-9 9.01 9.01 0 01-9 9zm0-16a7 7 0 107 7 7.008 7.008 0 00-7-7z"
              fill="#000"/>
        <path d="M24.191 15.5a1 1 0 01-.969-1.251 6.976 6.976 0 014.55-4.887 1 1 0 11.635 1.896 4.986 4.986 0 00-3.249 3.493 1 1 0 01-.967.75zM35.809 15.5a1 1 0 01-.967-.75 4.986 4.986 0 00-3.25-3.492 1 1 0 11.636-1.896 6.976 6.976 0 014.55 4.887 1.001 1.001 0 01-.97 1.252z"
              fill="#000"/>
        <path d="M30 12a4 4 0 110-8 4 4 0 010 8zm0-6a2 2 0 100 4 2 2 0 000-4zM29.999 60a.995.995 0 01-.554-.168c-1.927-1.284-7.91-.593-11.228.144a1 1 0 01-1.187-1.219A6.255 6.255 0 0123 54a2.853 2.853 0 003-3.005V43c-.006-.1-.23-3-7-3a1 1 0 010-2c8.898 0 9 4.796 9 5v8a4.82 4.82 0 01-5 5 3.871 3.871 0 00-3.236 1.644c2.968-.497 8.355-1.1 10.79.524A1 1 0 0130 60z"
              fill="#000"/>
        <path d="M42.001 60c-.073 0-.146-.008-.218-.024-3.318-.736-9.303-1.428-11.228-.144a1 1 0 11-1.11-1.664c3.261-2.174 11.808-.359 12.772-.144A1 1 0 0142 60zM24.521 36.704a18.616 18.616 0 01-6.91-1.783 1 1 0 11.778-1.842c2.204.928 4.749 1.841 6.92 1.578.49-.04.936-.296 1.22-.697.33-.534.278-1.22-.13-1.697a5.101 5.101 0 00-1.269-1.052c-2.688-1.726-5.72-3.291-8.932-4.948-.814-.42-1.641-.85-2.481-1.287a1 1 0 11.926-1.772c.837.437 1.66.864 2.472 1.281 3.254 1.68 6.328 3.267 9.095 5.044.664.396 1.257.9 1.755 1.492a3.413 3.413 0 01.246 4.021 3.624 3.624 0 01-2.665 1.601c-.34.041-.682.061-1.024.06zM26 26c-2.607 0-7.31-3.173-9.883-5.064a1 1 0 111.186-1.612C21.164 22.164 24.578 24 26 24a.213.213 0 00.198-.1c.64-.777.603-3.761-.089-7.255a1 1 0 111.961-.39c.508 2.564 1.14 7.13-.326 8.915A2.194 2.194 0 0126 26z"
              fill="#000"/>
        <path d="M41.999 60a1 1 0 01-.968-.753C40.994 59.107 40.145 56 37 56a4.82 4.82 0 01-5-5v-8c0-.204.102-5 9-5a1 1 0 010 2c-6.77 0-6.994 2.9-7 3.023V51a2.852 2.852 0 003 3c2.84.047 5.29 2 5.97 4.757A1 1 0 0141.999 60zM35.477 36.703a8.46 8.46 0 01-1.028-.06 3.622 3.622 0 01-2.66-1.603 3.413 3.413 0 01.25-4.022 6.926 6.926 0 011.751-1.49c2.768-1.776 5.84-3.363 9.095-5.043.81-.419 1.635-.846 2.472-1.281a1 1 0 11.926 1.772c-.84.439-1.667.868-2.481 1.287-3.211 1.657-6.243 3.222-8.932 4.948a5.093 5.093 0 00-1.264 1.048 1.442 1.442 0 00-.135 1.699c.282.4.727.657 1.216.699 2.171.263 4.72-.65 6.924-1.578a1 1 0 11.778 1.842 18.61 18.61 0 01-6.912 1.782zM34 26a2.193 2.193 0 01-1.744-.83c-1.467-1.786-.834-6.352-.326-8.915a1 1 0 111.96.39c-.69 3.493-.728 6.477-.088 7.256A.213.213 0 0034 24c1.422 0 4.836-1.835 8.697-4.676a1 1 0 111.186 1.611C41.31 22.828 36.607 26 34 26z"
              fill="#000"/>
    </g>
</svg>
